<svg version="1.1" id="Layer_1" xmlns="http://www.w3.org/2000/svg" xmlns:xlink="http://www.w3.org/1999/xlink" x="0px" y="0px"
	 width="100%" viewBox="0 0 208 143" enable-background="new 0 0 208 143" xml:space="preserve">
<path fill="#000000" opacity="1.000000" stroke="none" 
	d="
M120.000000,144.000000 
	C80.000000,144.000000 40.500004,144.000000 1.000005,144.000000 
	C1.000004,96.333336 1.000004,48.666676 1.000002,1.000012 
	C70.333321,1.000008 139.666641,1.000008 208.999969,1.000004 
	C208.999985,48.666656 208.999985,96.333313 209.000000,143.999985 
	C179.500000,144.000000 150.000000,144.000000 120.000000,144.000000 
M119.983421,69.479202 
	C117.345543,65.383270 114.025917,61.567410 112.205345,57.135723 
	C107.806335,46.427570 106.128357,35.100018 105.874557,23.496824 
	C105.799660,20.072039 104.221779,16.680130 103.332657,13.273155 
	C101.534546,16.240772 100.332993,18.979664 100.088188,21.801556 
	C99.489754,28.699888 99.746590,35.689163 98.874199,42.541901 
	C98.120819,48.459827 96.627930,54.349724 94.803612,60.040985 
	C93.666908,63.587128 91.306709,66.741089 89.495598,70.071060 
	C89.818710,70.427521 90.141815,70.783981 90.464920,71.140434 
	C92.310349,70.644920 94.155777,70.149414 95.255150,69.854218 
	C97.087708,71.164139 98.592766,72.239952 100.476128,73.586182 
	C101.232628,69.543671 101.820541,66.402016 102.427727,63.157425 
	C106.250160,63.157425 109.874565,63.157425 113.602486,63.157425 
	C114.037163,64.718399 114.435982,66.150581 114.444107,66.179764 
	C110.596207,67.375893 107.059990,68.122452 103.905510,69.654839 
	C102.859200,70.163116 102.794449,72.691994 102.280937,74.297081 
	C102.729355,74.425697 103.177773,74.554321 103.626190,74.682945 
	C108.353691,66.827209 110.583931,66.800041 116.970406,74.407417 
	C117.854927,75.461029 119.040276,76.262100 120.086357,77.180084 
	C120.465591,77.039528 120.844826,76.898972 121.224060,76.758415 
	C120.985298,74.507195 120.746544,72.255981 119.983421,69.479202 
M169.999435,117.209427 
	C170.580124,118.122498 171.160797,119.035568 171.741486,119.948647 
	C172.161072,119.039146 172.921219,118.137894 172.943466,117.218773 
	C173.063431,112.264648 173.000259,107.306091 173.000259,102.355713 
	C175.966553,102.039658 178.474396,101.772453 180.982239,101.505249 
	C180.938385,101.003372 180.894531,100.501503 180.850677,99.999626 
	C175.086273,99.999626 169.315933,100.153252 163.560181,99.930161 
	C160.962051,99.829460 159.811386,100.840668 158.940231,103.102684 
	C157.398865,107.104950 155.586456,111.002831 153.720154,115.332611 
	C146.629990,100.393120 146.629990,100.393120 143.590485,100.779053 
	C146.079742,106.173126 148.473038,111.463348 150.975082,116.701637 
	C151.540573,117.885529 152.484360,118.888733 153.254013,119.975105 
	C154.360779,118.948898 155.871124,118.124458 156.502853,116.860771 
	C158.945557,111.974609 161.108047,106.948380 163.276566,102.190132 
	C165.687500,102.190132 167.634903,102.190132 169.998688,102.190132 
	C169.998688,106.999969 169.998688,111.631264 169.999435,117.209427 
M134.971863,118.853653 
	C134.981201,113.523170 135.072067,108.190422 134.924454,102.864288 
	C134.898010,101.910233 133.885895,100.983498 133.328888,100.044151 
	C132.886093,100.932289 132.098663,101.806168 132.061203,102.711082 
	C131.913239,106.285713 132.000488,109.870079 132.000488,114.711884 
	C129.337952,111.152023 127.549538,108.516388 125.504852,106.097366 
	C123.545784,103.779648 121.320656,101.686829 119.212456,99.495171 
	C118.902451,99.850967 118.592453,100.206764 118.282448,100.562561 
	C118.282448,107.003746 118.282448,113.444931 118.282448,121.155663 
	C123.175667,116.654221 119.412025,111.232819 121.840759,106.881721 
	C124.458595,110.340492 126.613022,113.647903 129.261139,116.496323 
	C130.638168,117.977509 132.886917,118.648285 134.971863,118.853653 
M47.006897,118.135025 
	C47.555054,118.741341 48.103214,119.347656 48.651367,119.953972 
	C49.097088,119.403587 49.879318,118.880829 49.927166,118.297798 
	C50.088398,116.333221 49.988529,114.347229 49.988529,112.157288 
	C56.995556,111.315132 56.094742,119.035919 61.973045,121.719749 
	C61.024731,118.818977 60.732578,116.964142 59.844311,115.461761 
	C58.830158,113.746475 58.322376,112.953102 60.146435,111.049934 
	C63.558212,107.490211 61.575775,100.525703 57.340477,100.082771 
	C53.968353,99.730118 50.529907,100.011665 47.000595,100.011665 
	C47.000595,106.222794 47.000595,111.708221 47.006897,118.135025 
M83.053299,100.003204 
	C81.555374,100.002220 80.057327,99.989014 78.559540,100.002632 
	C74.761032,100.037170 71.805420,100.697685 71.911476,105.697235 
	C72.010056,110.344002 74.450615,111.265434 78.321381,111.031509 
	C79.790535,110.942734 81.544571,110.764992 82.686325,111.441727 
	C83.780952,112.090515 84.929306,113.871490 84.799286,115.011841 
	C84.674934,116.102463 82.972893,117.792618 81.898727,117.843834 
	C79.100105,117.977249 75.259506,119.465309 74.616028,114.476852 
	C74.584381,114.231506 73.234741,114.156181 72.443207,113.990005 
	C71.073547,118.632500 72.633720,120.505707 77.200981,120.027679 
	C78.847313,119.855370 80.532906,119.908463 82.189972,120.018456 
	C86.037392,120.273834 88.016876,118.881317 88.073868,114.686577 
	C88.133308,110.311699 86.230080,108.728600 82.058876,108.945930 
	C80.309715,109.037071 78.458458,108.749283 76.795044,108.203072 
	C76.025177,107.950279 75.111626,106.651321 75.135818,105.853119 
	C75.163818,104.930023 76.219551,103.222984 76.713158,103.263634 
	C79.556488,103.497803 83.032829,101.215660 85.133492,105.162117 
	C85.431190,105.721405 86.864342,105.676315 87.771950,105.910957 
	C88.080421,105.433327 88.388893,104.955688 88.697372,104.478058 
	C87.103241,102.994812 85.509109,101.511566 83.053299,100.003204 
M36.390026,115.000374 
	C37.895283,115.862045 39.466675,116.628746 40.884457,117.616035 
	C41.980217,118.379105 42.883499,119.418571 43.872353,120.335159 
	C42.409130,113.654610 40.117126,107.977753 37.692505,102.358116 
	C37.299946,101.448280 36.353897,100.220230 35.599754,100.173599 
	C34.777660,100.122780 33.453476,101.090088 33.085911,101.934631 
	C30.561230,107.735580 28.229956,113.620697 25.836426,119.478722 
	C26.179531,119.760208 26.522636,120.041695 26.865742,120.323181 
	C27.904387,119.589302 29.573160,119.047203 29.865625,118.086243 
	C30.809986,114.983292 32.937035,114.726036 36.390026,115.000374 
M97.543701,117.964493 
	C97.628349,118.620827 97.712997,119.277168 97.797653,119.933495 
	C98.855774,119.348572 100.276299,119.022903 100.911316,118.135284 
	C104.225876,113.502213 109.237045,113.728966 112.100533,118.609612 
	C112.621246,119.497124 114.205330,119.760742 116.375046,120.855598 
	C113.459366,113.812500 111.110718,108.009682 108.623619,102.266815 
	C108.237724,101.375793 107.218376,100.170288 106.492317,100.170525 
	C105.661041,100.170799 104.434921,101.185532 104.064247,102.052055 
	C101.913147,107.080803 99.963417,112.195679 97.543701,117.964493 
M197.984589,115.487831 
	C196.128326,114.099480 196.128326,114.099480 194.596817,115.831642 
	C192.176147,118.569473 184.772156,118.944588 184.320648,116.204163 
	C183.686768,112.356987 183.752274,108.194313 184.642181,104.432358 
	C184.874557,103.450111 189.262894,103.417892 191.754593,103.026299 
	C192.383453,102.927467 193.058884,103.125000 193.581711,103.174042 
	C194.294357,104.563850 194.934647,105.812523 196.186478,108.253853 
	C197.001053,106.016403 198.150894,104.316208 197.732056,103.722305 
	C196.672974,102.220581 195.064606,100.488785 193.401352,100.132416 
	C183.770752,98.069016 181.000214,100.491013 181.000259,110.413773 
	C181.000275,112.074211 180.825348,113.759941 181.059494,115.386734 
	C181.232513,116.588760 181.646912,118.005035 182.460175,118.821335 
	C185.435364,121.807709 195.828094,120.024231 197.984589,115.487831 
M13.000069,112.423508 
	C13.000069,114.876038 13.000069,117.328575 13.000069,120.424164 
	C18.180748,118.786621 14.534949,114.365669 16.830187,112.000244 
	C18.363411,112.000244 20.185978,111.822678 21.961494,112.036255 
	C25.980234,112.519676 27.756737,110.559196 27.984009,106.822289 
	C28.221350,102.919876 25.779718,100.118446 22.044027,100.016388 
	C19.120235,99.936508 16.192514,100.000381 13.000093,100.000381 
	C13.000093,104.201569 13.000093,107.827187 13.000069,112.423508 
M67.241661,132.906143 
	C67.241661,131.622559 67.241661,130.338974 67.241661,128.369003 
	C63.619759,129.042953 60.270611,130.079041 56.893959,130.178162 
	C53.527756,130.276962 49.114555,127.927307 46.991562,129.361603 
	C43.818951,131.505005 41.566883,127.028564 38.322212,130.587708 
	C39.673794,131.471085 40.827862,132.869125 42.014145,132.897018 
	C50.166981,133.088684 58.326546,132.993790 67.241661,132.906143 
M12.705752,129.006836 
	C11.981147,130.070694 11.256542,131.134552 9.989452,132.994873 
	C19.198513,132.994873 27.098312,132.896530 34.993649,133.041412 
	C38.332024,133.102676 38.390312,131.610840 37.573685,129.001160 
	C29.435034,129.001160 21.485796,129.001160 12.705752,129.006836 
M133.580505,131.391785 
	C131.753372,126.799278 128.081512,129.823837 125.274368,129.075836 
	C124.988243,130.525040 124.759827,131.681946 124.555321,132.717758 
	C133.113205,132.717758 141.400238,132.717758 149.759720,132.717758 
	C149.992950,131.452072 150.206741,130.291885 150.444748,129.000275 
	C145.678497,129.000275 141.203262,128.903381 136.738663,129.078308 
	C135.794220,129.115326 134.888718,130.146500 133.580505,131.391785 
M82.644409,132.999771 
	C89.704178,132.999771 96.763939,132.999771 103.823708,132.999771 
	C104.030113,132.460251 104.236519,131.920731 104.442932,131.381210 
	C103.066185,130.598541 101.689438,129.815872 100.312706,129.033203 
	C99.826088,129.976837 99.339478,130.920456 99.183617,131.222702 
	C92.837341,126.091812 85.605904,131.241577 78.658485,130.143097 
	C79.710945,131.093979 80.763412,132.044876 82.644409,132.999771 
M174.900375,133.000092 
	C178.511536,133.000092 182.122681,133.000092 185.735718,133.000092 
	C185.735718,131.433289 185.735718,130.376587 185.735718,129.192474 
	C179.727341,129.192474 173.970261,129.192474 168.194336,129.192474 
	C168.194336,130.513062 168.194336,131.637863 168.194336,132.652649 
	C170.261490,132.775955 172.138474,132.887924 174.900375,133.000092 
M91.999878,113.394890 
	C92.001503,119.292000 92.001503,119.292000 94.684486,119.478943 
	C95.871490,106.299576 95.314095,101.168274 91.999878,99.897652 
	C91.999878,104.205582 91.999878,108.315536 91.999878,113.394890 
M106.057594,131.323456 
	C107.886719,134.174210 108.895363,132.912186 109.264084,131.253098 
	C113.253349,134.918671 118.121109,131.905457 123.237526,133.537186 
	C122.243248,131.430084 121.749580,129.293182 121.113907,129.250076 
	C119.487801,129.139786 117.798477,129.961639 115.834229,130.491699 
	C114.771881,128.659775 107.939682,127.894333 105.668404,130.154984 
	C105.648735,130.174561 105.845299,130.411377 106.057594,131.323456 
M64.999062,114.355095 
	C65.011276,119.266121 65.011276,119.266121 67.664116,119.513908 
	C68.986771,105.761864 68.371269,100.767403 64.999062,100.478355 
	C64.999062,104.796616 64.999062,109.094437 64.999062,114.355095 
M166.542877,132.098190 
	C166.606125,131.119263 166.669357,130.140320 166.733292,129.150589 
	C154.098434,128.625977 154.098434,128.625977 154.574188,132.883148 
	C158.476456,132.883148 162.402344,132.883148 166.542877,132.098190 
M69.076317,132.222595 
	C71.953941,132.481659 74.831566,132.740738 77.792801,133.007339 
	C77.792801,131.496872 77.792801,130.399445 77.792801,129.000839 
	C75.624382,129.000839 73.598457,128.746094 71.687950,129.105301 
	C70.690529,129.292847 69.896225,130.560776 69.076317,132.222595 
z"/>
<path fill="#DD7913" opacity="1.000000" stroke="none" 
	d="
M120.245605,69.741982 
	C120.746544,72.255981 120.985298,74.507195 121.224060,76.758415 
	C120.844826,76.898972 120.465591,77.039528 120.086357,77.180084 
	C119.040276,76.262100 117.854927,75.461029 116.970406,74.407417 
	C110.583931,66.800041 108.353691,66.827209 103.626190,74.682945 
	C103.177773,74.554321 102.729355,74.425697 102.280937,74.297081 
	C102.794449,72.691994 102.859200,70.163116 103.905510,69.654839 
	C107.059990,68.122452 110.596207,67.375893 114.444107,66.179764 
	C114.435982,66.150581 114.037163,64.718399 113.602486,63.157425 
	C109.874565,63.157425 106.250160,63.157425 102.427727,63.157425 
	C101.820541,66.402016 101.232628,69.543671 100.476128,73.586182 
	C98.592766,72.239952 97.087708,71.164139 95.255150,69.854218 
	C94.155777,70.149414 92.310349,70.644920 90.464920,71.140434 
	C90.141815,70.783981 89.818710,70.427521 89.495598,70.071060 
	C91.306709,66.741089 93.666908,63.587128 94.803612,60.040985 
	C96.627930,54.349724 98.120819,48.459827 98.874199,42.541901 
	C99.746590,35.689163 99.489754,28.699888 100.088188,21.801556 
	C100.332993,18.979664 101.534546,16.240772 103.332657,13.273155 
	C104.221779,16.680130 105.799660,20.072039 105.874557,23.496824 
	C106.128357,35.100018 107.806335,46.427570 112.205345,57.135723 
	C114.025917,61.567410 117.345543,65.383270 120.245605,69.741982 
z"/>
<path fill="#FFCC34" opacity="1.000000" stroke="none" 
	d="
M169.999054,116.735992 
	C169.998688,111.631264 169.998688,106.999969 169.998688,102.190132 
	C167.634903,102.190132 165.687500,102.190132 163.276566,102.190132 
	C161.108047,106.948380 158.945557,111.974609 156.502853,116.860771 
	C155.871124,118.124458 154.360779,118.948898 153.254013,119.975105 
	C152.484360,118.888733 151.540573,117.885529 150.975082,116.701637 
	C148.473038,111.463348 146.079742,106.173126 143.590485,100.779053 
	C146.629990,100.393120 146.629990,100.393120 153.720154,115.332611 
	C155.586456,111.002831 157.398865,107.104950 158.940231,103.102684 
	C159.811386,100.840668 160.962051,99.829460 163.560181,99.930161 
	C169.315933,100.153252 175.086273,99.999626 180.850677,99.999626 
	C180.894531,100.501503 180.938385,101.003372 180.982239,101.505249 
	C178.474396,101.772453 175.966553,102.039658 173.000259,102.355713 
	C173.000259,107.306091 173.063431,112.264648 172.943466,117.218773 
	C172.921219,118.137894 172.161072,119.039146 171.741486,119.948647 
	C171.160797,119.035568 170.580124,118.122498 169.999054,116.735992 
z"/>
<path fill="#FFCD33" opacity="1.000000" stroke="none" 
	d="
M134.856873,119.269402 
	C132.886917,118.648285 130.638168,117.977509 129.261139,116.496323 
	C126.613022,113.647903 124.458595,110.340492 121.840759,106.881721 
	C119.412025,111.232819 123.175667,116.654221 118.282448,121.155663 
	C118.282448,113.444931 118.282448,107.003746 118.282448,100.562561 
	C118.592453,100.206764 118.902451,99.850967 119.212456,99.495171 
	C121.320656,101.686829 123.545784,103.779648 125.504852,106.097366 
	C127.549538,108.516388 129.337952,111.152023 132.000488,114.711884 
	C132.000488,109.870079 131.913239,106.285713 132.061203,102.711082 
	C132.098663,101.806168 132.886093,100.932289 133.328888,100.044151 
	C133.885895,100.983498 134.898010,101.910233 134.924454,102.864288 
	C135.072067,108.190422 134.981201,113.523170 134.856873,119.269402 
z"/>
<path fill="#FFCD33" opacity="1.000000" stroke="none" 
	d="
M47.003746,117.664337 
	C47.000595,111.708221 47.000595,106.222794 47.000595,100.011665 
	C50.529907,100.011665 53.968353,99.730118 57.340477,100.082771 
	C61.575775,100.525703 63.558212,107.490211 60.146435,111.049934 
	C58.322376,112.953102 58.830158,113.746475 59.844311,115.461761 
	C60.732578,116.964142 61.024731,118.818977 61.973045,121.719749 
	C56.094742,119.035919 56.995556,111.315132 49.988529,112.157288 
	C49.988529,114.347229 50.088398,116.333221 49.927166,118.297798 
	C49.879318,118.880829 49.097088,119.403587 48.651367,119.953972 
	C48.103214,119.347656 47.555054,118.741341 47.003746,117.664337 
M57.944874,108.136467 
	C57.944874,106.536293 57.944874,104.936119 57.944874,103.254608 
	C55.116062,103.254608 52.715401,103.254608 50.261189,103.254608 
	C50.261189,105.583588 50.261189,107.647408 50.261189,110.447174 
	C52.938137,109.890320 55.241482,109.411179 57.944874,108.136467 
z"/>
<path fill="#FFCD33" opacity="1.000000" stroke="none" 
	d="
M83.484146,100.015762 
	C85.509109,101.511566 87.103241,102.994812 88.697372,104.478058 
	C88.388893,104.955688 88.080421,105.433327 87.771950,105.910957 
	C86.864342,105.676315 85.431190,105.721405 85.133492,105.162117 
	C83.032829,101.215660 79.556488,103.497803 76.713158,103.263634 
	C76.219551,103.222984 75.163818,104.930023 75.135818,105.853119 
	C75.111626,106.651321 76.025177,107.950279 76.795044,108.203072 
	C78.458458,108.749283 80.309715,109.037071 82.058876,108.945930 
	C86.230080,108.728600 88.133308,110.311699 88.073868,114.686577 
	C88.016876,118.881317 86.037392,120.273834 82.189972,120.018456 
	C80.532906,119.908463 78.847313,119.855370 77.200981,120.027679 
	C72.633720,120.505707 71.073547,118.632500 72.443207,113.990005 
	C73.234741,114.156181 74.584381,114.231506 74.616028,114.476852 
	C75.259506,119.465309 79.100105,117.977249 81.898727,117.843834 
	C82.972893,117.792618 84.674934,116.102463 84.799286,115.011841 
	C84.929306,113.871490 83.780952,112.090515 82.686325,111.441727 
	C81.544571,110.764992 79.790535,110.942734 78.321381,111.031509 
	C74.450615,111.265434 72.010056,110.344002 71.911476,105.697235 
	C71.805420,100.697685 74.761032,100.037170 78.559540,100.002632 
	C80.057327,99.989014 81.555374,100.002220 83.484146,100.015762 
z"/>
<path fill="#FFCC34" opacity="1.000000" stroke="none" 
	d="
M35.957558,115.000366 
	C32.937035,114.726036 30.809986,114.983292 29.865625,118.086243 
	C29.573160,119.047203 27.904387,119.589302 26.865742,120.323181 
	C26.522636,120.041695 26.179531,119.760208 25.836426,119.478722 
	C28.229956,113.620697 30.561230,107.735580 33.085911,101.934631 
	C33.453476,101.090088 34.777660,100.122780 35.599754,100.173599 
	C36.353897,100.220230 37.299946,101.448280 37.692505,102.358116 
	C40.117126,107.977753 42.409130,113.654610 43.872353,120.335159 
	C42.883499,119.418571 41.980217,118.379105 40.884457,117.616035 
	C39.466675,116.628746 37.895283,115.862045 35.957558,115.000366 
M35.967186,106.867645 
	C35.882004,106.728935 35.815548,106.572067 35.704945,106.458008 
	C35.633324,106.384148 35.409893,106.326019 35.402313,106.340141 
	C34.291920,108.409782 33.195068,110.486687 32.027130,112.696671 
	C34.478489,112.696671 36.186302,112.696671 38.594616,112.696671 
	C37.603752,110.652000 36.865616,109.128838 35.967186,106.867645 
z"/>
<path fill="#FFCC34" opacity="1.000000" stroke="none" 
	d="
M97.744637,117.622955 
	C99.963417,112.195679 101.913147,107.080803 104.064247,102.052055 
	C104.434921,101.185532 105.661041,100.170799 106.492317,100.170525 
	C107.218376,100.170288 108.237724,101.375793 108.623619,102.266815 
	C111.110718,108.009682 113.459366,113.812500 116.375046,120.855598 
	C114.205330,119.760742 112.621246,119.497124 112.100533,118.609612 
	C109.237045,113.728966 104.225876,113.502213 100.911316,118.135284 
	C100.276299,119.022903 98.855774,119.348572 97.797653,119.933502 
	C97.712997,119.277168 97.628349,118.620827 97.744637,117.622955 
M107.368881,112.993034 
	C109.170677,111.036751 109.170677,111.036751 105.933266,105.852524 
	C104.961403,108.376816 104.127686,110.542267 103.181915,112.998787 
	C104.577820,112.998787 105.570984,112.998787 107.368881,112.993034 
z"/>
<path fill="#FFCD33" opacity="1.000000" stroke="none" 
	d="
M197.960876,115.897751 
	C195.828094,120.024231 185.435364,121.807709 182.460175,118.821335 
	C181.646912,118.005035 181.232513,116.588760 181.059494,115.386734 
	C180.825348,113.759941 181.000275,112.074211 181.000259,110.413773 
	C181.000214,100.491013 183.770752,98.069016 193.401352,100.132416 
	C195.064606,100.488785 196.672974,102.220581 197.732056,103.722305 
	C198.150894,104.316208 197.001053,106.016403 196.186478,108.253853 
	C194.934647,105.812523 194.294357,104.563850 193.581711,103.174042 
	C193.058884,103.125000 192.383453,102.927467 191.754593,103.026299 
	C189.262894,103.417892 184.874557,103.450111 184.642181,104.432358 
	C183.752274,108.194313 183.686768,112.356987 184.320648,116.204163 
	C184.772156,118.944588 192.176147,118.569473 194.596817,115.831642 
	C196.128326,114.099480 196.128326,114.099480 197.960876,115.897751 
z"/>
<path fill="#FFCD33" opacity="1.000000" stroke="none" 
	d="
M13.000081,111.938156 
	C13.000093,107.827187 13.000093,104.201569 13.000093,100.000381 
	C16.192514,100.000381 19.120235,99.936508 22.044027,100.016388 
	C25.779718,100.118446 28.221350,102.919876 27.984009,106.822289 
	C27.756737,110.559196 25.980234,112.519676 21.961494,112.036255 
	C20.185978,111.822678 18.363411,112.000244 16.830187,112.000244 
	C14.534949,114.365669 18.180748,118.786621 13.000069,120.424164 
	C13.000069,117.328575 13.000069,114.876038 13.000081,111.938156 
M17.549370,109.987083 
	C18.533419,109.990906 19.789640,110.383141 20.447842,109.921944 
	C22.084009,108.775459 24.474194,107.379768 24.685556,105.828529 
	C25.022348,103.356758 22.633413,102.683121 20.268072,102.983559 
	C18.882551,103.159531 17.476431,103.173309 15.678698,103.284943 
	C16.055075,105.814659 16.358706,107.855446 17.549370,109.987083 
z"/>
<path fill="#FFCD33" opacity="1.000000" stroke="none" 
	d="
M66.862808,132.948639 
	C58.326546,132.993790 50.166981,133.088684 42.014145,132.897018 
	C40.827862,132.869125 39.673794,131.471085 38.322212,130.587708 
	C41.566883,127.028564 43.818951,131.505005 46.991562,129.361603 
	C49.114555,127.927307 53.527756,130.276962 56.893959,130.178162 
	C60.270611,130.079041 63.619759,129.042953 67.241661,128.369003 
	C67.241661,130.338974 67.241661,131.622559 66.862808,132.948639 
z"/>
<path fill="#FFCC34" opacity="1.000000" stroke="none" 
	d="
M13.121155,129.003998 
	C21.485796,129.001160 29.435034,129.001160 37.573685,129.001160 
	C38.390312,131.610840 38.332024,133.102676 34.993649,133.041412 
	C27.098312,132.896530 19.198513,132.994873 9.989452,132.994873 
	C11.256542,131.134552 11.981147,130.070694 13.121155,129.003998 
z"/>
<path fill="#FFCD33" opacity="1.000000" stroke="none" 
	d="
M133.772888,131.055695 
	C134.888718,130.146500 135.794220,129.115326 136.738663,129.078308 
	C141.203262,128.903381 145.678497,129.000275 150.444748,129.000275 
	C150.206741,130.291885 149.992950,131.452072 149.759720,132.717758 
	C141.400238,132.717758 133.113205,132.717758 124.555321,132.717758 
	C124.759827,131.681946 124.988243,130.525040 125.274368,129.075836 
	C128.081512,129.823837 131.753372,126.799278 133.772888,131.055695 
z"/>
<path fill="#FFCD33" opacity="1.000000" stroke="none" 
	d="
M82.230148,132.997772 
	C80.763412,132.044876 79.710945,131.093979 78.658485,130.143097 
	C85.605904,131.241577 92.837341,126.091812 99.183617,131.222702 
	C99.339478,130.920456 99.826088,129.976837 100.312698,129.033203 
	C101.689438,129.815872 103.066185,130.598541 104.442932,131.381210 
	C104.236519,131.920731 104.030113,132.460251 103.823708,132.999771 
	C96.763939,132.999771 89.704178,132.999771 82.230148,132.997772 
z"/>
<path fill="#FFCD33" opacity="1.000000" stroke="none" 
	d="
M174.457916,133.000000 
	C172.138474,132.887924 170.261490,132.775955 168.194336,132.652649 
	C168.194336,131.637863 168.194336,130.513062 168.194336,129.192474 
	C173.970261,129.192474 179.727341,129.192474 185.735718,129.192474 
	C185.735718,130.376587 185.735718,131.433289 185.735718,133.000092 
	C182.122681,133.000092 178.511536,133.000092 174.457916,133.000000 
z"/>
<path fill="#FFCD33" opacity="1.000000" stroke="none" 
	d="
M91.999878,112.910187 
	C91.999878,108.315536 91.999878,104.205582 91.999878,99.897652 
	C95.314095,101.168274 95.871490,106.299576 94.684486,119.478943 
	C92.001503,119.292000 92.001503,119.292000 91.999878,112.910187 
z"/>
<path fill="#FFCD33" opacity="1.000000" stroke="none" 
	d="
M105.999252,130.935120 
	C105.845299,130.411377 105.648735,130.174561 105.668404,130.154984 
	C107.939682,127.894333 114.771881,128.659775 115.834229,130.491699 
	C117.798477,129.961639 119.487801,129.139786 121.113907,129.250076 
	C121.749580,129.293182 122.243248,131.430084 123.237526,133.537186 
	C118.121109,131.905457 113.253349,134.918671 109.264084,131.253098 
	C108.895363,132.912186 107.886719,134.174210 105.999252,130.935120 
z"/>
<path fill="#FFCD33" opacity="1.000000" stroke="none" 
	d="
M64.999062,113.873672 
	C64.999062,109.094437 64.999062,104.796616 64.999062,100.478355 
	C68.371269,100.767403 68.986771,105.761864 67.664116,119.513908 
	C65.011276,119.266121 65.011276,119.266121 64.999062,113.873672 
z"/>
<path fill="#FFCD33" opacity="1.000000" stroke="none" 
	d="
M166.435547,132.490662 
	C162.402344,132.883148 158.476456,132.883148 154.574188,132.883148 
	C154.098434,128.625977 154.098434,128.625977 166.733292,129.150589 
	C166.669357,130.140320 166.606125,131.119263 166.435547,132.490662 
z"/>
<path fill="#FFCD33" opacity="1.000000" stroke="none" 
	d="
M69.043243,131.781677 
	C69.896225,130.560776 70.690529,129.292847 71.687950,129.105301 
	C73.598457,128.746094 75.624382,129.000839 77.792801,129.000839 
	C77.792801,130.399445 77.792801,131.496872 77.792801,133.007339 
	C74.831566,132.740738 71.953941,132.481659 69.043243,131.781677 
z"/>
<path fill="#000000" opacity="1.000000" stroke="none" 
	d="
M57.744850,108.534256 
	C55.241482,109.411179 52.938137,109.890320 50.261189,110.447174 
	C50.261189,107.647408 50.261189,105.583588 50.261189,103.254608 
	C52.715401,103.254608 55.116062,103.254608 57.944874,103.254608 
	C57.944874,104.936119 57.944874,106.536293 57.744850,108.534256 
z"/>
<path fill="#000000" opacity="1.000000" stroke="none" 
	d="
M36.047333,107.236664 
	C36.865616,109.128838 37.603752,110.652000 38.594616,112.696671 
	C36.186302,112.696671 34.478489,112.696671 32.027130,112.696671 
	C33.195068,110.486687 34.291920,108.409782 35.402313,106.340141 
	C35.409893,106.326019 35.633324,106.384148 35.704945,106.458008 
	C35.815548,106.572067 35.882004,106.728935 36.047333,107.236664 
z"/>
<path fill="#000000" opacity="1.000000" stroke="none" 
	d="
M106.966507,112.995911 
	C105.570984,112.998787 104.577820,112.998787 103.181915,112.998787 
	C104.127686,110.542267 104.961403,108.376816 105.933266,105.852524 
	C109.170677,111.036751 109.170677,111.036751 106.966507,112.995911 
z"/>
<path fill="#000000" opacity="1.000000" stroke="none" 
	d="
M17.105854,109.941658 
	C16.358706,107.855446 16.055075,105.814659 15.678698,103.284943 
	C17.476431,103.173309 18.882551,103.159531 20.268072,102.983559 
	C22.633413,102.683121 25.022348,103.356758 24.685556,105.828529 
	C24.474194,107.379768 22.084009,108.775459 20.447842,109.921944 
	C19.789640,110.383141 18.533419,109.990906 17.105854,109.941658 
z"/>
</svg>